<svg xmlns="http://www.w3.org/2000/svg" xmlns:xlink="http://www.w3.org/1999/xlink" width="75.473" height="59.828" viewBox="0 0 75.473 59.828"><defs><style>.a{fill:none;}.b{clip-path:url(#a);}.c{fill:#009fc2;}.d{fill:#1a1818;}.e{fill:#0f0c11;}</style><clipPath id="a"><rect class="a" width="75.473" height="59.828"/></clipPath></defs><g class="b"><path class="c" d="M419.751,455.892a10.383,10.383,0,1,1,13.562,0,19.54,19.54,0,0,1,8.03,5.606,20.011,20.011,0,1,0-29.621,0,19.535,19.535,0,0,1,8.029-5.606" transform="translate(-386.889 -428.031)"/><path class="d" d="M384.559,484.693a4.792,4.792,0,1,1,4.792,4.726,4.764,4.764,0,0,1-4.792-4.726m-2.339,0v12.7h2.339v-7.5a7.012,7.012,0,1,0-2.339-5.2" transform="translate(-382.22 -437.565)"/><path class="d" d="M422.445,484.693a4.791,4.791,0,1,1,4.792,4.726,4.764,4.764,0,0,1-4.792-4.726m-2.339,0v12.7h2.339v-7.5a7.012,7.012,0,1,0-2.339-5.2" transform="translate(-389.499 -437.565)"/><path class="e" d="M441.386,484.693a4.791,4.791,0,1,1,4.789,4.726,4.763,4.763,0,0,1-4.789-4.726m-2.336,0a7.142,7.142,0,0,0,11.918,5.2v1.818h2.339v-7.02a7.129,7.129,0,0,0-14.257,0" transform="translate(-393.138 -437.565)"/><path class="e" d="M469.91,479.088v5.881a4.791,4.791,0,0,1-9.581,0v-5.881h-2.34v5.881a7.146,7.146,0,0,0,11.914,5.21l.008,7.491,2.339,0-.013-12.3c.008-.132.013-.267.013-.4v-5.881Z" transform="translate(-396.777 -437.84)"/><path class="e" d="M408.316,480.032a4.661,4.661,0,1,1-4.662,4.661,4.665,4.665,0,0,1,4.662-4.661m0-2.374a7.035,7.035,0,1,0,7.034,7.035,7.035,7.035,0,0,0-7.034-7.035" transform="translate(-385.882 -437.565)"/></g></svg>